<?xml version="1.0" encoding="UTF-8"?><svg id="_レイヤー_2" xmlns="http://www.w3.org/2000/svg" viewBox="0 0 63.31 63.45"><defs><style>.cls-1{fill:none;}.cls-1,.cls-2,.cls-3,.cls-4{stroke-width:0px;}.cls-2{fill:#bf0a30;}.cls-3{fill:#002868;}.cls-4{fill:#fff;}</style></defs><g id="Layer_1"><path class="cls-4" d="M63.31,31.85c0,17.45-14.15,31.6-31.6,31.6S.1,49.31.1,31.85,14.25.25,31.71.25s31.6,14.15,31.6,31.6Z"/><path class="cls-1" d="M31.6,63.21c.57,0,1.13-.02,1.68-.04h-3.37c.56.03,1.12.04,1.68.04Z"/><path class="cls-1" d="M31.6,0c-.57,0-1.13.02-1.68.05h3.37c-.56-.03-1.12-.05-1.68-.05Z"/><path class="cls-4" d="M4.96,48.59h53.28c.98-1.53,1.84-3.15,2.54-4.85H2.42c.71,1.7,1.56,3.32,2.54,4.85Z"/><path class="cls-2" d="M2.42,43.74h58.37c.65-1.56,1.17-3.18,1.57-4.86H.85c.39,1.67.92,3.3,1.57,4.86Z"/><path class="cls-4" d="M14.7,58.3h33.8c2.17-1.38,4.16-3.01,5.92-4.85H8.78c1.77,1.85,3.76,3.48,5.92,4.85Z"/><path class="cls-2" d="M14.7,58.3c4.44,2.82,9.64,4.57,15.21,4.86h3.37c5.58-.29,10.77-2.04,15.22-4.86H14.7Z"/><path class="cls-2" d="M8.78,53.45h45.65c1.42-1.49,2.7-3.11,3.82-4.86H4.96c1.11,1.74,2.39,3.37,3.82,4.86Z"/><path class="cls-4" d="M27.89,34.07H.1c.13,1.64.38,3.25.75,4.81h61.5c.37-1.58.63-3.2.75-4.86H27.89v.04Z"/><path class="cls-2" d="M27.89,24.32h34.46c-.4-1.67-.92-3.3-1.57-4.85H27.89v4.85Z"/><path class="cls-4" d="M27.89,9.75h26.53c-1.77-1.85-3.76-3.48-5.93-4.86h-20.6v4.86Z"/><path class="cls-2" d="M27.89,14.61h30.35c-1.12-1.74-2.4-3.37-3.82-4.86h-26.53v4.86Z"/><path class="cls-2" d="M27.89,34.03h35.22c.06-.8.1-1.61.1-2.42s-.04-1.63-.1-2.43H27.89v4.86Z"/><path class="cls-2" d="M27.89,4.89h20.6C44.05,2.08,38.86.34,33.29.05h-3.37c-.68.04-1.36.1-2.03.18v4.67Z"/><path class="cls-4" d="M27.89,19.46h32.9c-.71-1.7-1.56-3.32-2.54-4.86h-30.35v4.86Z"/><path class="cls-4" d="M27.89,29.17h35.21c-.13-1.66-.38-3.28-.75-4.85H27.89v4.85Z"/><path class="cls-3" d="M27.89,34.03H.1s0,.03,0,.04h27.78v-.04Z"/><path class="cls-3" d="M4.67,24.04h.84l.27-.81.26.81h.84l-.38.27h4.88l-.38-.27h.85l.26-.81.26.81h.85l-.38.27h4.88l-.38-.27h.85l.27-.81.25.81h.85l-.38.27h4.88l-.38-.27h.85l.26-.81.26.81h.84l-.38.27h2.37v-4.85H2.42c-.12.28-.23.57-.34.86h.27l.26-.8.26.8h.85l-.69.5.26.8-.68-.5-.68.5.26-.8-.24-.17c-.44,1.19-.8,2.41-1.1,3.66h4.2l-.38-.27ZM21.36,20.65l.26-.8.26.8h.84l-.68.5.26.8-.69-.5-.68.5.26-.8-.69-.5h.85ZM15.02,20.65l.26-.8.26.8h.86l-.69.5.26.8-.69-.5-.68.5.25-.8-.68-.5h.84ZM8.68,20.39l.27-.81.26.81h.84l-.68.5.26.8-.68-.5-.69.5.27-.8-.69-.5h.84Z"/><path class="cls-3" d="M11.01,9.74h.85l.26-.8.26.8h.85-.02s4.16.01,4.16.01h-.02s.85-.01.85-.01l.27-.8.25.8h.85-.02s4.16.01,4.16.01h-.02s.85-.01.85-.01l.26-.8.26.8h.84-.02s2.01.01,2.01.01v-4.86h-13.17c-2.17,1.38-4.16,3.01-5.93,4.86h2.24-.02ZM21.43,6.2l.26-.81.27.81h.84l-.69.5.27.81-.69-.5-.68.5.26-.81-.68-.5h.84ZM15.09,6.2l.26-.81.26.81h.85l-.69.5.26.81-.68-.5-.69.5.26-.81-.69-.5h.85Z"/><polygon class="cls-3" points="14.93 14.61 15.77 14.61 15.35 14.3 14.93 14.61"/><polygon class="cls-3" points="21.27 14.61 22.11 14.61 21.69 14.3 21.27 14.61"/><path class="cls-3" d="M14.93,14l-.69-.5h.85l.26-.8.26.8h.85l-.69.5.2.61h5.1l.2-.61-.68-.5h.84l.26-.8.27.8h.84l-.69.5.2.61h5.58v-4.86h-2.01l-.67.48.26.8-.68-.49-.69.49.26-.8-.66-.48h-4.16l-.66.48.26.8-.68-.49-.69.49.26-.8-.67-.48h-4.16l-.67.48.26.8-.68-.49-.68.49.26-.8-.66-.48h-2.24c-1.43,1.49-2.71,3.11-3.82,4.86h9.76l.2-.61ZM9.7,14.55l-.69-.5-.68.5.26-.81-.69-.5h.85l.26-.8.26.8h.84l-.68.5.27.81Z"/><path class="cls-3" d="M27.89,29.17H.1c-.04.59-.08,1.18-.09,1.77h.53L0,31.34c0,.09,0,.18,0,.26,0,.1,0,.19,0,.28l.12.36-.11-.08c.01.63.04,1.24.09,1.86h27.79v-4.86ZM6.47,32.25l-.68-.5-.69.5.26-.8-.68-.5h.84l.27-.8.26.8h.84l-.69.5.27.8ZM12.8,32.25l-.68-.5-.68.5.26-.8-.68-.5h.85l.26-.8.26.8h.85l-.68.5.26.8ZM19.14,32.25l-.68-.5-.69.5.26-.8-.68-.5h.85l.27-.8.25.8h.85l-.68.5.26.8ZM24.8,31.75l-.69.5.26-.8-.68-.5h.85l.26-.8.26.8h.84l-.68.5.26.8-.68-.5Z"/><path class="cls-3" d="M27.89.22c-3.16.37-6.18,1.21-8.99,2.44h.67l-.68.5.26.8-.68-.5-.69.5.26-.8-.09-.07c-1.11.54-2.19,1.14-3.22,1.8h13.17V.22ZM24.8,3.47l-.69.5.26-.8-.68-.5h.85l.26-.8.26.8h.84l-.68.5.26.8-.68-.5Z"/><path class="cls-3" d="M27.89,14.61h-5.58l.06.2-.27-.2h-.83l-.27.2.06-.2h-5.1l.06.2-.27-.2h-.83l-.27.2.06-.2H4.97c-.98,1.53-1.84,3.16-2.54,4.86h25.47v-4.86ZM6.47,18.11l-.68-.5-.69.5.26-.8-.68-.5h.84l.27-.8.26.8h.84l-.69.5.27.8ZM12.8,18.11l-.68-.5-.68.5.26-.8-.68-.5h.85l.26-.8.26.8h.85l-.68.5.26.8ZM19.14,18.11l-.68-.5-.69.5.26-.8-.68-.5h.85l.27-.8.25.8h.85l-.68.5.26.8ZM24.8,17.61l-.69.5.26-.8-.68-.5h.85l.26-.8.26.8h.84l-.68.5.26.8-.68-.5Z"/><path class="cls-3" d="M27.89,24.32h-2.37l-.31.22.26.81-.68-.5-.69.5.26-.81-.31-.22h-4.88l-.31.22.26.81-.68-.5-.69.5.26-.81-.31-.22h-4.88l-.31.22.26.81-.68-.5-.68.5.26-.81-.31-.22h-4.88l-.31.22.27.81-.68-.5-.69.5.26-.81-.3-.22H.85c-.37,1.58-.62,3.2-.75,4.85h27.79v-4.85ZM3.23,28.7l-.68-.5-.69.5.26-.8-.69-.5h.85l.26-.8.26.8h.85l-.68.5.26.8ZM9.58,28.77l-.69-.5-.69.5.26-.81-.69-.5h.85l.26-.8.26.8h.85l-.69.5.27.81ZM15.91,29.02l-.68-.5-.68.5.26-.8-.68-.5h.85l.26-.8.26.8h.84l-.68.5.26.8ZM22.25,29.02l-.69-.5-.68.5.26-.8-.68-.5h.84l.26-.8.26.8h.86l-.69.5.26.8Z"/><path class="cls-4" d="M17.77,3.97l.69-.5.68.5-.26-.8.68-.5h-.67c-.32.14-.64.28-.96.43l.09.07-.26.8Z"/><polygon class="cls-4" points="18.72 9.74 18.46 8.93 18.19 9.74 17.35 9.74 17.37 9.75 19.54 9.75 19.56 9.74 18.72 9.74"/><polygon class="cls-4" points="18.03 10.23 17.77 11.04 18.46 10.54 19.14 11.04 18.88 10.23 19.54 9.75 17.37 9.75 18.03 10.23"/><polygon class="cls-4" points="18.72 16.81 18.46 16 18.19 16.81 17.35 16.81 18.03 17.31 17.77 18.11 18.46 17.61 19.14 18.11 18.88 17.31 19.56 16.81 18.72 16.81"/><polygon class="cls-4" points="18.72 24.04 18.46 23.23 18.19 24.04 17.35 24.04 17.73 24.32 19.19 24.32 19.56 24.04 18.72 24.04"/><polygon class="cls-4" points="18.03 24.54 17.77 25.35 18.46 24.85 19.14 25.35 18.88 24.54 19.19 24.32 17.73 24.32 18.03 24.54"/><polygon class="cls-4" points="18.72 30.94 18.46 30.14 18.19 30.94 17.35 30.94 18.03 31.44 17.77 32.25 18.46 31.75 19.14 32.25 18.88 31.44 19.56 30.94 18.72 30.94"/><polygon class="cls-4" points="12.38 9.74 12.11 8.93 11.86 9.74 11.01 9.74 11.03 9.75 13.21 9.75 13.23 9.74 12.38 9.74"/><polygon class="cls-4" points="11.69 10.23 11.43 11.04 12.11 10.54 12.8 11.04 12.54 10.23 13.21 9.75 11.03 9.75 11.69 10.23"/><polygon class="cls-4" points="12.38 16.81 12.11 16 11.86 16.81 11.01 16.81 11.69 17.31 11.43 18.11 12.11 17.61 12.8 18.11 12.54 17.31 13.23 16.81 12.38 16.81"/><polygon class="cls-4" points="12.38 24.04 12.11 23.23 11.86 24.04 11.01 24.04 11.38 24.32 12.85 24.32 13.23 24.04 12.38 24.04"/><polygon class="cls-4" points="11.69 24.54 11.43 25.35 12.11 24.85 12.8 25.35 12.54 24.54 12.85 24.32 11.38 24.32 11.69 24.54"/><polygon class="cls-4" points="12.38 30.94 12.11 30.14 11.86 30.94 11.01 30.94 11.69 31.44 11.43 32.25 12.11 31.75 12.8 32.25 12.54 31.44 13.23 30.94 12.38 30.94"/><polygon class="cls-4" points="6.04 16.81 5.78 16 5.51 16.81 4.67 16.81 5.35 17.31 5.09 18.11 5.78 17.61 6.47 18.11 6.2 17.31 6.89 16.81 6.04 16.81"/><polygon class="cls-4" points="6.04 24.04 5.78 23.23 5.51 24.04 4.67 24.04 5.05 24.32 6.51 24.32 6.89 24.04 6.04 24.04"/><polygon class="cls-4" points="5.35 24.54 5.09 25.35 5.78 24.85 6.47 25.35 6.2 24.54 6.51 24.32 5.05 24.32 5.35 24.54"/><polygon class="cls-4" points="6.04 30.94 5.78 30.14 5.51 30.94 4.67 30.94 5.35 31.44 5.09 32.25 5.78 31.75 6.47 32.25 6.2 31.44 6.89 30.94 6.04 30.94"/><path class="cls-4" d="M.55,30.94H.02c0,.13,0,.26,0,.4l.54-.4Z"/><path class="cls-4" d="M0,31.88c0,.09,0,.19,0,.28l.11.08-.12-.36Z"/><polygon class="cls-4" points="21 7.5 21.69 7.01 22.37 7.5 22.11 6.7 22.8 6.2 21.96 6.2 21.69 5.39 21.43 6.2 20.58 6.2 21.27 6.7 21 7.5"/><polygon class="cls-4" points="22.8 13.5 21.96 13.5 21.69 12.69 21.43 13.5 20.58 13.5 21.27 14 21.07 14.61 21.27 14.61 21.69 14.3 22.11 14.61 22.31 14.61 22.11 14 22.8 13.5"/><polygon class="cls-4" points="21 14.8 21.27 14.61 21.07 14.61 21 14.8"/><polygon class="cls-4" points="22.37 14.8 22.31 14.61 22.11 14.61 22.37 14.8"/><polygon class="cls-4" points="20.94 21.95 21.63 21.46 22.31 21.95 22.05 21.15 22.73 20.65 21.89 20.65 21.63 19.84 21.36 20.65 20.51 20.65 21.21 21.15 20.94 21.95"/><polygon class="cls-4" points="21.82 27.72 21.56 26.91 21.3 27.72 20.46 27.72 21.14 28.22 20.88 29.02 21.56 28.52 22.25 29.02 21.99 28.22 22.67 27.72 21.82 27.72"/><polygon class="cls-4" points="14.67 7.5 15.35 7.01 16.03 7.5 15.77 6.7 16.46 6.2 15.61 6.2 15.35 5.39 15.09 6.2 14.24 6.2 14.93 6.7 14.67 7.5"/><polygon class="cls-4" points="16.46 13.5 15.61 13.5 15.35 12.69 15.09 13.5 14.24 13.5 14.93 14 14.73 14.61 14.93 14.61 15.35 14.3 15.77 14.61 15.97 14.61 15.77 14 16.46 13.5"/><polygon class="cls-4" points="16.03 14.8 15.97 14.61 15.77 14.61 16.03 14.8"/><polygon class="cls-4" points="14.67 14.8 14.93 14.61 14.73 14.61 14.67 14.8"/><polygon class="cls-4" points="14.6 21.95 15.29 21.46 15.97 21.95 15.71 21.15 16.4 20.65 15.54 20.65 15.29 19.84 15.02 20.65 14.18 20.65 14.86 21.15 14.6 21.95"/><polygon class="cls-4" points="15.49 27.72 15.22 26.91 14.96 27.72 14.11 27.72 14.8 28.22 14.54 29.02 15.22 28.52 15.91 29.02 15.65 28.22 16.33 27.72 15.49 27.72"/><polygon class="cls-4" points="9.27 13.24 9.01 12.44 8.75 13.24 7.9 13.24 8.59 13.74 8.32 14.55 9.01 14.05 9.7 14.55 9.43 13.74 10.12 13.24 9.27 13.24"/><polygon class="cls-4" points="8.26 21.7 8.95 21.2 9.63 21.7 9.37 20.89 10.05 20.39 9.21 20.39 8.95 19.59 8.68 20.39 7.84 20.39 8.53 20.89 8.26 21.7"/><polygon class="cls-4" points="9.15 27.47 8.89 26.66 8.62 27.47 7.77 27.47 8.46 27.96 8.2 28.77 8.89 28.27 9.58 28.77 9.31 27.96 10 27.47 9.15 27.47"/><path class="cls-4" d="M1.93,21.63l.68-.5.68.5-.26-.8.69-.5h-.85l-.26-.8-.26.8h-.27c-.04.11-.09.22-.13.33l.24.17-.26.8Z"/><polygon class="cls-4" points="2.81 27.39 2.55 26.59 2.28 27.39 1.43 27.39 2.12 27.89 1.86 28.7 2.55 28.2 3.23 28.7 2.97 27.89 3.66 27.39 2.81 27.39"/><polygon class="cls-4" points="25.9 2.66 25.05 2.66 24.8 1.86 24.54 2.66 23.69 2.66 24.37 3.16 24.11 3.97 24.8 3.47 25.48 3.97 25.21 3.16 25.9 2.66"/><polygon class="cls-4" points="25.05 9.74 24.8 8.93 24.54 9.74 23.69 9.74 23.71 9.75 25.88 9.75 25.9 9.74 25.05 9.74"/><polygon class="cls-4" points="24.37 10.23 24.11 11.04 24.8 10.54 25.48 11.04 25.21 10.23 25.88 9.75 23.71 9.75 24.37 10.23"/><polygon class="cls-4" points="25.9 16.81 25.05 16.81 24.8 16 24.54 16.81 23.69 16.81 24.37 17.31 24.11 18.11 24.8 17.61 25.48 18.11 25.21 17.31 25.9 16.81"/><polygon class="cls-4" points="25.05 24.04 24.8 23.23 24.54 24.04 23.69 24.04 24.06 24.32 25.52 24.32 25.9 24.04 25.05 24.04"/><polygon class="cls-4" points="24.37 24.54 24.11 25.35 24.8 24.85 25.48 25.35 25.21 24.54 25.52 24.32 24.06 24.32 24.37 24.54"/><polygon class="cls-4" points="25.9 30.94 25.05 30.94 24.8 30.14 24.54 30.94 23.69 30.94 24.37 31.44 24.11 32.25 24.8 31.75 25.48 32.25 25.21 31.44 25.9 30.94"/></g></svg>