<svg width="128" height="24" viewBox="0 0 128 24" fill="none" xmlns="http://www.w3.org/2000/svg">
<path d="M12.078 19.2867C10.9889 19.2867 9.95214 19.0895 8.96424 18.7229C8.09853 19.0895 7.13507 19.2867 6.17162 19.2867C4.22027 19.2867 2.28986 18.7471 0.858643 17.7198L1.84653 14.7555C3.40342 15.7828 4.76134 16.3224 6.26936 16.3224C7.65171 16.3224 9.03755 15.4404 9.03755 14.0707C9.03755 11.4973 2.24099 12.6007 2.24099 7.4331C2.24099 3.68714 5.18372 1.65332 8.2975 1.65332C10.0534 1.65332 11.708 2.0926 13.1671 2.9504L12.1793 5.91466C10.6224 5.08107 9.45993 4.61758 8.19976 4.61758C6.81741 4.61758 5.48044 5.49959 5.48044 6.89352C5.48044 9.49114 12.3014 8.38775 12.3014 13.5311C12.3014 14.6345 12.0536 15.5649 11.6103 16.3708C11.9803 16.4435 12.3538 16.4677 12.6994 16.4677C14.1585 16.4677 15.9633 15.6099 17.3456 14.631L17.939 17.2044C16.3089 18.4289 14.1585 19.2867 12.0815 19.2867H12.078Z" fill="#002D84"/>
<path d="M25.0742 13.8494C24.233 16.959 21.8103 19.2868 18.8955 19.2868C15.8306 19.2868 14.2004 17.0351 14.2004 14.0224C14.2004 9.78526 17.0419 6.18457 20.6758 6.18457C23.2206 6.18457 24.7775 7.72723 25.2488 9.97896C25.8911 12.2065 28.6104 11.3003 31.2564 9.4878L31.8498 12.0577C30.0695 13.379 27.1792 14.6277 25.0777 13.846L25.0742 13.8494ZM22.2572 11.5977C22.2572 10.1035 21.7126 8.90325 20.4769 8.90325C18.6721 8.90325 17.3142 11.1308 17.3142 13.8494C17.3142 15.3437 17.8832 16.5681 19.0945 16.5681C20.8993 16.5681 22.2572 14.3406 22.2572 11.5977Z" fill="#002D84"/>
<path d="M38.4509 17.2043C36.7963 18.4287 34.6459 19.2865 32.6178 19.2865C29.6262 19.2865 28.1705 17.5225 28.5894 14.4856L30.5652 0.674316H33.5568L31.6055 14.4856C31.3821 15.9799 32.1745 16.471 33.2357 16.471C34.6424 16.471 36.4716 15.6132 37.833 14.6343L38.4509 17.2078V17.2043Z" fill="#002D84"/>
<path d="M51.8171 17.2046C50.1869 18.429 48.0122 19.2868 45.984 19.2868C44.3294 19.2868 43.1181 18.723 42.4758 17.7199C41.5123 18.7714 40.301 19.2868 38.992 19.2868C36.6427 19.2868 34.6425 17.5712 34.6425 14.0466C34.6425 9.12462 38.0774 6.18457 41.5368 6.18457C43.0936 6.18457 44.6017 6.62385 45.984 7.33638L45.3417 11.743L44.9717 14.4859C44.7727 15.9801 45.5407 16.4713 46.6019 16.4713C48.0122 16.4713 49.8413 15.6135 51.1992 14.6346L51.8171 17.208V17.2046ZM42.1791 12.9432L42.7236 9.19725C42.1791 9.0001 41.7357 8.87904 41.2156 8.87904C39.3131 8.87904 37.7562 10.9129 37.7562 13.9497C37.7562 15.738 38.5731 16.5958 39.5365 16.5958C40.5 16.5958 41.7602 15.8867 42.1825 12.9467L42.1791 12.9432Z" fill="#002D84"/>
<path d="M65.9408 17.291C64.2862 18.5154 62.2581 19.3732 60.2299 19.3732C57.2383 19.3732 55.9048 17.6092 56.3237 14.5723L56.795 11.3901C57.0673 9.50505 56.5716 8.96546 55.7582 8.96546C54.8681 8.96546 52.8434 10.1173 52.0754 15.4543L51.5553 19.1276H48.5637L50.344 6.51658H53.3356L53.1122 8.15608C54.2991 6.73448 55.657 6.271 56.8194 6.271C58.8231 6.271 60.3032 7.81366 59.8843 10.7295L59.3398 14.5758C59.1164 16.07 59.7587 16.5612 60.8478 16.5612C62.2581 16.5612 63.9616 15.7034 65.323 14.7245L65.9408 17.2979V17.291Z" fill="#002D84"/>
<path d="M79.0592 15.1085C78.3331 17.0973 76.6994 19.0585 73.5018 19.2868C71.8507 19.4044 70.6359 18.723 69.9936 17.7199C69.0301 18.7714 67.8188 19.2868 66.5098 19.2868C64.1605 19.2868 62.1603 17.5712 62.1603 14.0466C62.1603 9.12462 65.5952 6.18457 69.0546 6.18457C70.6115 6.18457 72.1195 6.62385 73.5018 7.33638L72.8595 11.743L72.4895 14.4859C72.2905 15.9801 73.0585 16.4713 74.1197 16.4713C75.53 16.4713 76.8739 14.6519 77.3626 13.1196L79.0592 15.1085ZM69.6969 12.9432L70.2414 9.19725C69.6969 9.0001 69.2536 8.87904 68.7334 8.87904C66.831 8.87904 65.2741 10.9129 65.2741 13.9497C65.2741 15.738 66.0909 16.5958 67.0544 16.5958C68.0178 16.5958 69.278 15.8867 69.7004 12.9467L69.6969 12.9432Z" fill="#002D84"/>
<path d="M93.4971 17.2045C91.6679 18.5742 89.6677 19.0411 87.6151 19.0411H81.7087L83.7089 4.93582H77.827L78.6927 1.89893H91.5946L90.7289 4.93582H86.8227L85.217 16.2256H88.1841C89.6677 16.2256 91.2979 15.7863 92.8792 14.6345L93.4971 17.2079V17.2045Z" fill="#002D84"/>
<path d="M96.2304 6.43012L95.0924 14.4858C94.869 15.9801 95.6614 16.4712 96.7226 16.4712C98.1294 16.4712 99.9586 15.6134 101.32 14.6346L101.938 17.208C100.283 18.4324 98.1329 19.2902 96.1047 19.2902C93.1131 19.2902 91.6575 17.5262 92.0764 14.4893L93.2388 6.43357H96.2304V6.43012ZM95.5148 0.944336C96.4782 0.944336 97.145 1.65341 97.145 2.58384C97.145 3.75986 96.1571 4.66609 95.0191 4.66609C94.0312 4.66609 93.3645 3.95702 93.3645 3.02658C93.3645 1.87477 94.3524 0.944336 95.5148 0.944336Z" fill="#002D84"/>
<path d="M109.768 19.2868C108.483 19.2868 107.223 18.9928 106.036 18.429C105.048 18.9928 103.959 19.2868 102.849 19.2868C102.329 19.2868 101.788 19.2383 101.268 19.1415L100.601 23.9424H97.6093L98.4261 18.1626C98.4261 18.1384 98.4017 18.1384 98.4017 18.1384L99.0684 13.5831L100.081 6.43011H103.072L102.873 7.77907C103.886 6.6999 105.024 6.18799 106.137 6.18799C108.089 6.18799 109.747 7.70644 109.747 11.0373C109.747 13.0954 109.227 14.7833 108.413 16.108C109.08 16.3536 109.771 16.4747 110.389 16.4747C111.848 16.4747 113.653 15.6169 115.035 14.638L115.629 17.2114C113.998 18.4359 111.848 19.2937 109.771 19.2937L109.768 19.2868ZM103.167 16.5923C105.069 16.5923 106.626 14.5585 106.626 11.5216C106.626 9.70913 105.984 8.87554 105.093 8.87554C104.203 8.87554 102.573 10.0273 102.029 13.922L101.683 16.2741C102.228 16.4712 102.671 16.5923 103.167 16.5923Z" fill="#002D84"/>
<path d="M122.167 19.2866C121.13 19.2866 120.313 19.0894 119.622 18.7228C118.882 19.0894 118.016 19.2866 117.077 19.2866C113.468 19.2866 111.244 16.5195 110.801 12.4795L113.768 11.5006C113.793 12.2616 113.89 12.9465 114.04 13.5345C115.573 11.8189 116.536 9.32156 116.955 6.18781L120.142 5.74854C119.943 10.2555 122.366 11.3312 122.366 14.3923C122.366 15.129 122.219 15.7897 121.947 16.4019C122.219 16.4503 122.516 16.4745 122.788 16.4745C124.199 16.4745 126.028 15.6167 127.386 14.6378L128.003 17.2113C126.349 18.4357 124.199 19.2935 122.17 19.2935L122.167 19.2866ZM117.074 16.4711C118.334 16.4711 119.371 15.7101 119.371 14.3888C119.371 13.4584 118.826 12.6248 118.31 11.473C117.57 13.2128 116.554 14.6309 115.269 15.807C115.789 16.2462 116.383 16.4676 117.074 16.4676V16.4711Z" fill="#002D84"/>
</svg>
