<svg width="38" height="36" viewBox="0 0 38 36" fill="none" xmlns="http://www.w3.org/2000/svg">
<path d="M31.7696 33.5546C31.7696 34.907 30.6631 36.0035 29.2982 36.0035C27.9333 36.0035 26.8267 34.907 26.8267 33.5546C26.8267 32.2022 27.9333 31.1057 29.2982 31.1057C30.6631 31.1057 31.7696 32.2022 31.7696 33.5546ZM10.1652 25.7168C7.30621 25.7168 4.98833 28.0135 4.98833 30.8463C4.98833 33.6791 7.30621 35.9758 10.1652 35.9758C13.0241 35.9758 15.342 33.6791 15.342 30.8463C15.342 28.0135 13.0241 25.7168 10.1652 25.7168ZM2.47148 11.5596C1.10658 11.5596 0 12.6561 0 14.0085C0 15.3609 1.10658 16.4574 2.47148 16.4574C3.83637 16.4574 4.94295 15.3609 4.94295 14.0085C4.94295 12.6561 3.83637 11.5596 2.47148 11.5596ZM19.0283 4.89435C20.3932 4.89435 21.4997 3.79789 21.4997 2.44547C21.4997 1.09305 20.3932 -0.00341797 19.0283 -0.00341797C17.6634 -0.00341797 16.5568 1.09305 16.5568 2.44547C16.5568 3.79789 17.6634 4.89435 19.0283 4.89435ZM30.7678 20.5562C29.1131 21.746 28.422 23.8559 29.0538 25.7825C30.4641 30.0888 25.4932 33.6688 21.7965 31.0089C20.1418 29.819 17.9042 29.819 16.2531 31.0089C12.5564 33.6688 7.58198 30.0888 8.99575 25.7825C9.62758 23.8559 8.93641 21.746 7.28178 20.5562C3.58504 17.8963 5.48402 12.1027 10.0535 12.1027C12.0956 12.1027 13.9073 10.7987 14.5391 8.87206C15.9529 4.56576 22.1002 4.56576 23.5104 8.87206C24.1423 10.7987 25.954 12.1027 27.9961 12.1027C32.5655 12.1027 34.4645 17.8963 30.7678 20.5562ZM35.5187 11.9159C34.1538 11.9159 33.0473 13.0123 33.0473 14.3648C33.0473 15.7172 34.1538 16.8136 35.5187 16.8136C36.8836 16.8136 37.9902 15.7172 37.9902 14.3648C37.9902 13.0123 36.8836 11.9159 35.5187 11.9159Z" fill="#002D84"/>
</svg>
